<svg width="32" height="32" viewBox="0 0 32 32" fill="none" xmlns="http://www.w3.org/2000/svg">
<path d="M0 6.25C0 2.79822 2.79822 0 6.25 0H25.75C29.2018 0 32 2.79822 32 6.25V25.75C32 29.2018 29.2018 32 25.75 32H6.25C2.79822 32 0 29.2018 0 25.75V6.25Z" fill="#9BCBBA"/>
<path d="M27.8412 12.3114C26.5712 11.5601 25.0816 11.1466 23.4985 11.1907C20.5177 11.2738 17.9573 12.9577 16.615 15.3977C16.5051 15.5976 16.2977 15.7242 16.07 15.7305C15.8423 15.7367 15.6288 15.6215 15.5079 15.4281C14.0323 13.0669 11.3827 11.5283 8.40207 11.6114C6.81893 11.6555 5.35461 12.1514 4.12827 12.9721C3.89111 13.1308 3.78746 13.4275 3.87397 13.6998C3.96049 13.972 4.21643 14.1546 4.50152 14.1465C4.50425 14.1465 4.50691 14.1464 4.50965 14.1463C9.25625 14.0141 13.4523 16.5794 15.6331 20.4537C15.7501 20.6616 15.9722 20.7875 16.2103 20.781C16.4484 20.7745 16.6636 20.6367 16.7688 20.4226C18.7312 16.4325 22.7787 13.6374 27.5255 13.505C27.5282 13.505 27.5309 13.5049 27.5336 13.5048C27.8189 13.4971 28.0645 13.301 28.1359 13.0242C28.2072 12.7473 28.0869 12.4568 27.8412 12.3114Z" fill="black"/>
</svg>
